<svg xmlns="http://www.w3.org/2000/svg" version="1.1" width="16"
	height="16" viewBox="0 0 540 540">
	<path fill="#FEFE33"
		d="M511.5,205.3l-21.3-13.2L415,218.7c5.7,16,8.8,33.3,8.8,51.3c0,18.5-3.3,36.3-9.3,52.8l72.8,26.6l24.2-14.6
	C523.4,290.3,523.4,249.7,511.5,205.3z" />
	<path fill="#FB9902"
		d="M386.8,170l60.6-51.9l-0.6-24.9c-32.5-32.5-67.6-52.8-112.1-64.7l-21.6,12l-14.7,78.3
	C333.5,125.4,364.5,143.9,386.8,170z" />
	<path fill="#FABC02"
		d="M418.6,230.2l92.9-24.9c-11.9-44.4-32.2-79.5-64.7-112.1l-68,68C397.6,180.1,411.5,203.7,418.6,230.2z" />
	<path fill="#FE2712"
		d="M243.9,118.4l-12.7-73.9l-25.9-16c-44.4,11.9-79.5,32.2-112.1,64.7l-0.5,26.8l59.8,50.6 C175.5,143.7,207.5,124.6,243.9,118.4z" />
	<path fill="#FD5308"
		d="M270,116.2c13.8,0,27.1,1.8,39.8,5.2l24.9-92.9c-44.4-11.9-85-11.9-129.4,0l24.9,92.9
	C242.9,118,256.2,116.2,270,116.2z" />
	<path fill="#8601AF"
		d="M116.2,270c0-19.7,3.7-38.6,10.5-55.9l-70.4-27.5l-27.8,18.7c-11.9,44.4-11.9,85,0,129.4l27.3,14.7
	l69.9-25.9C119.6,306.8,116.2,288.8,116.2,270z" />
	<path fill="#A7194B"
		d="M161.2,161.2l-68-68c-32.5,32.5-52.8,67.6-64.7,112.1l92.9,24.9C128.5,203.7,142.4,180.1,161.2,161.2z" />
	<path fill="#0247FE"
		d="M152.9,369.6l-57.5,48.9l-2.1,28.2c32.5,32.5,67.6,52.8,112.1,64.7l25.8-11.8l13.2-78.1
	C207.9,415.5,175.8,396.6,152.9,369.6z" />
	<path fill="#3D01A4"
		d="M28.5,334.7c11.9,44.4,32.2,79.5,64.7,112.1l68-68c-18.8-18.8-32.8-42.5-39.8-68.9L28.5,334.7z" />
	<path fill="#66B032"
		d="M446,421.2l-59.4-51c-22.6,26.3-54,44.9-89.6,51.2l13.4,75l24.3,15.1c44.4-11.9,79.5-32.2,112.1-64.7
	L446,421.2z" />
	<path fill="#0391CE"
		d="M270,423.8c-13.8,0-27.1-1.8-39.8-5.2l-24.9,92.9c44.4,11.9,85,11.9,129.4,0l-24.9-92.9
	C297.1,422,283.8,423.8,270,423.8z" />
	<path fill="#D0EA2B"
		d="M418.6,309.8c-7.1,26.5-21,50.1-39.8,68.9l68,68c32.5-32.5,52.8-67.6,64.7-112.1L418.6,309.8z" />
</svg>
