<svg xmlns="http://www.w3.org/2000/svg" width="19" height="19"
	viewBox="0 0 19 19">
	<defs id="colors">
		<linearGradient
			id="Icons.CheckBoxIndeterminateSelectedDisabled.inactiveFillColor">
			<stop offset="0" stop-color="#3C3F41" />
			<stop offset="1" stop-color="#3C3F41" />
		</linearGradient>
		<linearGradient
			id="Icons.CheckBoxIndeterminateSelectedDisabled.inactiveBorderColor">
			<stop offset="0" stop-color="#545556" />
			<stop offset="1" stop-color="#545556" />
		</linearGradient>
		<linearGradient
			id="Icons.CheckBoxIndeterminateSelectedDisabled.selectionDisabledColor">
			<stop offset="0" stop-color="#606060" />
			<stop offset="1" stop-color="#606060" />
		</linearGradient>
	</defs>
	<g fill="none" fill-rule="evenodd">
		<rect width="13" height="13" x="3.5" y="2.5"
			fill="url(#Icons.CheckBoxIndeterminateSelectedDisabled.inactiveFillColor)"
			rx="1.5" />
		<path
			fill="url(#Icons.CheckBoxIndeterminateSelectedDisabled.inactiveBorderColor)"
			d="M5,2 L15,2 C16.1045695,2 17,2.8954305 17,4 L17,14 C17,15.1045695 16.1045695,16 15,16 L5,16 C3.8954305,16 3,15.1045695 3,14 L3,4 C3,2.8954305 3.8954305,2 5,2 Z M5,3 C4.44771525,3 4,3.44771525 4,4 L4,14 C4,14.5522847 4.44771525,15 5,15 L15,15 C15.5522847,15 16,14.5522847 16,14 L16,4 C16,3.44771525 15.5522847,3 15,3 L5,3 Z" />
		<rect width="8.4" height="2.5" x="5.737" y="7.73"
			fill="url(#Icons.CheckBoxIndeterminateSelectedDisabled.selectionDisabledColor)"
			rx="1" />
	</g>
</svg>
