<svg xmlns="http://www.w3.org/2000/svg" width="19" height="19"
	viewBox="0 0 19 19">
	<defs id="colors">
		<linearGradient id="Icons.CheckBox.activeFillColor">
			<stop offset="0" stop-color="#43494A" />
			<stop offset="1" stop-color="#43494A" />
		</linearGradient>
		<linearGradient id="Icons.CheckBox.activeBorderColor">
			<stop offset="0" stop-color="#6B6B6B" />
			<stop offset="1" stop-color="#6B6B6B" />
		</linearGradient>
	</defs>
	<g fill="none" fill-rule="evenodd">
		<rect width="13.5" height="13.5" x="3.5" y="2.5"
			fill="url(#Icons.CheckBox.activeFillColor)" rx="2" />
		<path fill="url(#Icons.CheckBox.activeBorderColor)"
			d="M5,2 L15,2 C16.1045695,2 17,2.8954305 17,4 L17,14 C17,15.1045695 16.1045695,16 15,16 L5,16 C3.8954305,16 3,15.1045695 3,14 L3,4 C3,2.8954305 3.8954305,2 5,2 Z M5,3 C4.44771525,3 4,3.44771525 4,4 L4,14 C4,14.5522847 4.44771525,15 5,15 L15,15 C15.5522847,15 16,14.5522847 16,14 L16,4 C16,3.44771525 15.5522847,3 15,3 L5,3 Z" />
	</g>
</svg>
