<svg xmlns="http://www.w3.org/2000/svg" width="19" height="19"
	viewBox="0 0 19 19">
	<defs id="colors">
		<linearGradient
			id="Icons.RadioButtonSelectedFocused.selectedFillColor">
			<stop offset="0" stop-color="#43494A" />
			<stop offset="1" stop-color="#43494A" />
		</linearGradient>
		<linearGradient
			id="Icons.RadioButtonSelectedFocused.focusSelectedBorderColor">
			<stop offset="0" stop-color="#466D94" />
			<stop offset="1" stop-color="#466D94" />
		</linearGradient>
		<linearGradient
			id="Icons.RadioButtonSelectedFocused.selectionFocusSelectedColor">
			<stop offset="0" stop-color="#A7A7A7" />
			<stop offset="1" stop-color="#A7A7A7" />
		</linearGradient>
		<linearGradient
			id="Icons.RadioButtonSelectedFocused.glowFocus"
			opacity="Icons.RadioButtonSelectedFocused.glowOpacity">
			<stop offset="0" stop-color="#3e84c9" stop-opacity="0.5" />
			<stop offset="1" stop-color="#3e84c9" stop-opacity="0.5" />
		</linearGradient>
	</defs>
	<g fill="none" fill-rule="evenodd">
		<circle cx="9.5" cy="9.5" r="7"
			fill="url(#Icons.RadioButtonSelectedFocused.selectedFillColor)" />
		<path fill="url(#Icons.RadioButtonSelectedFocused.glowFocus)"
			d="M9.5,19 C4.25329488,19 0,14.7467051 0,9.5 C0,4.25329488 4.25329488,0 9.5,0 C14.7467051,0 19,4.25329488 19,9.5 C19,14.7467051 14.7467051,19 9.5,19 Z M9.5,16 C13.0898509,16 16,13.0898509 16,9.5 C16,5.91014913 13.0898509,3 9.5,3 C5.91014913,3 3,5.91014913 3,9.5 C3,13.0898509 5.91014913,16 9.5,16 Z" />
		<path
			fill="url(#Icons.RadioButtonSelectedFocused.focusSelectedBorderColor)"
			d="M9.5,17 C5.35786438,17 2,13.6421356 2,9.5 C2,5.35786438 5.35786438,2 9.5,2 C13.6421356,2 17,5.35786438 17,9.5 C17,13.6421356 13.6421356,17 9.5,17 Z M9.5,16 C13.0898509,16 16,13.0898509 16,9.5 C16,5.91014913 13.0898509,3 9.5,3 C5.91014913,3 3,5.91014913 3,9.5 C3,13.0898509 5.91014913,16 9.5,16 Z" />
		<circle cx="9.5" cy="9.5" r="2.5"
			fill="url(#Icons.RadioButtonSelectedFocused.selectionFocusSelectedColor)" />
	</g>
</svg>
