<svg xmlns="http://www.w3.org/2000/svg" width="19" height="19"
	viewBox="0 0 19 19">
	<defs id="colors">
		<linearGradient
			id="Icons.RadioButtonSelectedDisabled.inactiveFillColor">
			<stop offset="0" stop-color="#3C3F41" />
			<stop offset="1" stop-color="#3C3F41" />
		</linearGradient>
		<linearGradient
			id="Icons.RadioButtonSelectedDisabled.inactiveBorderColor">
			<stop offset="0" stop-color="#545556" />
			<stop offset="1" stop-color="#545556" />
		</linearGradient>
		<linearGradient
			id="Icons.RadioButtonSelectedDisabled.selectionDisabledColor">
			<stop offset="0" stop-color="#606060" />
			<stop offset="1" stop-color="#606060" />
		</linearGradient>
	</defs>
	<g fill="none" fill-rule="evenodd">
		<circle cx="9.5" cy="9.5" r="7"
			fill="url(#Icons.RadioButtonSelectedDisabled.inactiveFillColor)" />
		<path
			fill="url(#Icons.RadioButtonSelectedDisabled.inactiveBorderColor)"
			d="M9.5,17 C5.35786438,17 2,13.6421356 2,9.5 C2,5.35786438 5.35786438,2 9.5,2 C13.6421356,2 17,5.35786438 17,9.5 C17,13.6421356 13.6421356,17 9.5,17 Z M9.5,16 C13.0898509,16 16,13.0898509 16,9.5 C16,5.91014913 13.0898509,3 9.5,3 C5.91014913,3 3,5.91014913 3,9.5 C3,13.0898509 5.91014913,16 9.5,16 Z" />
		<circle cx="9.5" cy="9.5" r="2.5"
			fill="url(#Icons.RadioButtonSelectedDisabled.selectionDisabledColor)" />
	</g>
</svg>
