<svg xmlns="http://www.w3.org/2000/svg" width="20" height="23"
	viewBox="0 0 20 23" visualPadding="2 2 2 2">
	<defs id="colors">
		<linearGradient
			id="Icons.VolumeSliderFocused.activeFillColor">
			<stop offset="0" stop-color="#A0A0A0" />
			<stop offset="1" stop-color="#A0A0A0" />
		</linearGradient>
		<linearGradient
			id="Icons.VolumeSliderFocused.focusBorderColor">
			<stop offset="0" stop-color="#466D94" />
			<stop offset="1" stop-color="#466D94" />
		</linearGradient>
		<linearGradient
			id="Icons.VolumeSliderFocused.glowFocus"
			opacity="Icons.VolumeSliderFocused.glowOpacity">
			<stop offset="0" stop-color="#3e84c9" stop-opacity="0.5" />
			<stop offset="1" stop-color="#3e84c9" stop-opacity="0.5" />
		</linearGradient>
	</defs>
	<g transform="translate(2,2)">
		<polyline
			fill="url(#Icons.VolumeSliderFocused.activeFillColor)"
			points="15.5,0.5 15.5,11 8,18.3 0.5,11 0.5,0.5" />
		<path fill="url(#Icons.VolumeSliderFocused.glowFocus)"
			d="M15.5,0.5 L15.5,11 L8,18.3 L0.5,11 V0.5 H15.5 M16,-2 H0 c-1.1,0,-2,0.9,-2,2 V11
                 c0,0.5,0.2,1.1,0.6,1.4 l8,8 C7,20.8,7.5,21,8,21 s1,-0.2,1.4,-0.6 l8,-8
	             C17.8,12,18,11.5,18,11 V0 C18,-1.1,17.1,-2,16,-2 L16,-2 z" />
		<path fill="url(#Icons.VolumeSliderFocused.focusBorderColor)"
			d="M15,1v9.6l-7,7l-7-7V1H15 M16,0H0v11l8,8l8-8V0L16,0z" />
	</g>
</svg>
